<svg xmlns="http://www.w3.org/2000/svg" viewBox="0 0 144 74"><defs><style>.cls-1{fill:#fff;}</style></defs><title>sci-mu-9000-go</title><g id="Layer_2" data-name="Layer 2"><polyline class="cls-1" points="127.22 18.31 127.22 54.64 78.7 54.64 78.7 66.36 127.22 66.36 127.22 66.64 127.5 66.36 138.56 55.31 138.56 54.64 138.56 18.31 138.56 6.5 127.22 6.5"/><polyline class="cls-1" points="90.03 53.83 90.03 17.5 138.56 17.5 138.56 5.78 90.03 5.78 90.03 5.5 89.75 5.78 78.7 16.83 78.7 17.5 78.7 53.83 78.7 65.64 90.03 65.64"/><polygon class="cls-1" points="15.47 66.14 15.19 65.86 4.14 54.81 4.14 54.14 4.14 17.81 4.14 6 15.47 6 64 6 64 17.81 15.47 17.81 15.47 54.14 64 54.14 64 65.86 15.47 65.86 15.47 66.14"/><rect class="cls-1" x="54" y="36.07" width="10" height="29.79"/></g></svg>