<svg xmlns="http://www.w3.org/2000/svg" viewBox="0 0 295 227"><defs><style>.cls-1{fill:#6ecbd3;}.cls-2{fill:#37bbe0;}.cls-3{fill:#e24c33;}.cls-4{fill:#6ecbd3;}</style></defs><title>sci-mu-9000-logo</title><g id="Layer_2" data-name="Layer 2"><polygon class="cls-1" points="93.24 9.38 92.96 9.66 81.9 20.71 81.9 21.38 81.9 57.71 81.9 69.52 93.24 69.52 141.76 69.52 141.76 57.71 93.24 57.71 93.24 21.38 141.76 21.38 141.76 9.66 93.24 9.66 93.24 9.38"/><polyline class="cls-2" points="93.24 204.71 93.24 168.38 141.76 168.38 141.76 156.66 93.24 156.66 93.24 156.38 92.96 156.66 81.9 167.71 81.9 168.38 81.9 204.71 81.9 216.52 93.24 216.52"/><polyline class="cls-2" points="130.43 169.18 130.43 205.52 81.9 205.52 81.9 217.24 130.43 217.24 130.43 217.52 130.71 217.24 141.76 206.18 141.76 205.52 141.76 169.18 141.76 157.38 130.43 157.38"/><polyline class="cls-2" points="165.24 204.71 165.24 168.38 213.76 168.38 213.76 156.66 165.24 156.66 165.24 156.38 164.96 156.66 153.9 167.71 153.9 168.38 153.9 204.71 153.9 216.52 165.24 216.52"/><polyline class="cls-2" points="202.43 169.18 202.43 205.52 153.9 205.52 153.9 217.24 202.43 217.24 202.43 217.52 202.71 217.24 213.76 206.18 213.76 205.52 213.76 169.18 213.76 157.38 202.43 157.38"/><polyline class="cls-2" points="237.24 204.71 237.24 168.38 285.76 168.38 285.76 156.66 237.24 156.66 237.24 156.38 236.96 156.66 225.9 167.71 225.9 168.38 225.9 204.71 225.9 216.52 237.24 216.52"/><polyline class="cls-2" points="274.43 169.18 274.43 205.52 225.9 205.52 225.9 217.24 274.43 217.24 274.43 217.52 274.71 217.24 285.76 206.18 285.76 205.52 285.76 169.18 285.76 157.38 274.43 157.38"/><polygon class="cls-1" points="9.9 33.71 9.9 45.71 21.57 45.71 57.9 45.71 57.9 57.71 21.57 57.71 9.9 57.71 9.9 69.52 21.57 69.52 57.9 69.52 69.76 69.52 69.76 57.71 69.76 33.71 57.9 33.71 21.57 33.71 21.57 21.38 57.9 21.38 69.76 21.38 69.76 9.66 57.9 9.66 21.57 9.66 21.57 9.38 21.29 9.66 9.9 21.04 9.57 21.38 9.9 21.38 9.9 33.71"/><rect class="cls-3" x="34.07" y="107.71" width="11.83" height="35.81"/><polygon class="cls-3" points="57.9 83.66 57.85 83.66 21.57 83.66 9.9 83.66 9.9 95.71 9.9 143.52 21.57 143.52 21.57 95.71 57.9 95.71 57.9 143.52 69.76 143.52 69.76 95.71 69.9 95.71 69.76 95.57 57.9 83.66"/><polygon class="cls-3" points="129.57 131.38 93.24 131.38 93.24 83.66 81.9 83.66 81.9 131.38 81.57 131.38 81.9 131.71 81.9 143.52 93.24 143.52 93.71 143.52 129.57 143.52 141.76 143.52 141.76 131.38 141.76 83.66 129.57 83.66 129.57 131.38"/><rect class="cls-4" x="152.9" y="33.71" width="12.04" height="35.81"/><rect class="cls-1" x="152.9" y="9.66" width="12.04" height="11.72"/><path class="cls-2" d="M9.9,157.38l59.86.28v48.05L57.9,217.52H9.9V205.71h48v-12H9.9Zm11.67,24.33H57.9V169.38H21.57Z"/></g></svg>